<?xml version="1.0" encoding="UTF-8" standalone="no"?>
<!-- Created with Inkscape (http://www.inkscape.org/) -->
<svg
   xmlns:dc="http://purl.org/dc/elements/1.1/"
   xmlns:cc="http://creativecommons.org/ns#"
   xmlns:rdf="http://www.w3.org/1999/02/22-rdf-syntax-ns#"
   xmlns:svg="http://www.w3.org/2000/svg"
   xmlns="http://www.w3.org/2000/svg"
   xmlns:xlink="http://www.w3.org/1999/xlink"
   xmlns:sodipodi="http://sodipodi.sourceforge.net/DTD/sodipodi-0.dtd"
   xmlns:inkscape="http://www.inkscape.org/namespaces/inkscape"
   width="744.09448819"
   height="1052.3622047"
   id="svg2"
   sodipodi:version="0.32"
   inkscape:version="0.46"
   sodipodi:docname="gas-mask.svg"
   inkscape:output_extension="org.inkscape.output.svg.inkscape"
   inkscape:export-filename="/home/chujoii/src/hedgewars/brain_slugs.png"
   inkscape:export-xdpi="90"
   inkscape:export-ydpi="90">
  <defs
     id="defs4">
    <linearGradient
       id="linearGradient3249">
      <stop
         id="stop3251"
         offset="0"
         style="stop-color:#588dfd;stop-opacity:0.25090909;" />
      <stop
         style="stop-color:#ffffff;stop-opacity:1;"
         offset="0.49156556"
         id="stop3253" />
      <stop
         id="stop3255"
         offset="1"
         style="stop-color:#3372f5;stop-opacity:0.27272728;" />
    </linearGradient>
    <linearGradient
       id="linearGradient3701">
      <stop
         style="stop-color:#89c300;stop-opacity:1;"
         offset="0"
         id="stop3703" />
      <stop
         id="stop3727"
         offset="0.5"
         style="stop-color:#74a700;stop-opacity:1;" />
      <stop
         style="stop-color:#1d2b00;stop-opacity:1;"
         offset="1"
         id="stop3705" />
    </linearGradient>
    <linearGradient
       inkscape:collect="always"
       id="linearGradient3685">
      <stop
         style="stop-color:#000000;stop-opacity:1;"
         offset="0"
         id="stop3687" />
      <stop
         style="stop-color:#000000;stop-opacity:0;"
         offset="1"
         id="stop3689" />
    </linearGradient>
    <linearGradient
       id="linearGradient3862">
      <stop
         style="stop-color:#000000;stop-opacity:1;"
         offset="0"
         id="stop3864" />
      <stop
         id="stop3878"
         offset="0.5"
         style="stop-color:#ffffff;stop-opacity:1;" />
      <stop
         id="stop3870"
         offset="1"
         style="stop-color:#000000;stop-opacity:1;" />
    </linearGradient>
    <linearGradient
       id="linearGradient3843">
      <stop
         style="stop-color:#588dfd;stop-opacity:0.25090909;"
         offset="0"
         id="stop3845" />
      <stop
         id="stop3852"
         offset="0.5"
         style="stop-color:#ffffff;stop-opacity:1;" />
      <stop
         style="stop-color:#3372f5;stop-opacity:0.27272728;"
         offset="1"
         id="stop3847" />
    </linearGradient>
    <linearGradient
       id="linearGradient3655">
      <stop
         id="stop3657"
         offset="0"
         style="stop-color:#ff003a;stop-opacity:1;" />
      <stop
         style="stop-color:#d6002b;stop-opacity:1;"
         offset="0.90221012"
         id="stop3659" />
      <stop
         id="stop3661"
         offset="1"
         style="stop-color:#290003;stop-opacity:1;" />
    </linearGradient>
    <linearGradient
       id="linearGradient3224">
      <stop
         style="stop-color:#4d8207;stop-opacity:1;"
         offset="0"
         id="stop3226" />
      <stop
         style="stop-color:#7cd900;stop-opacity:0;"
         offset="1"
         id="stop3228" />
    </linearGradient>
    <linearGradient
       id="linearGradient3867">
      <stop
         style="stop-color:#7a0072;stop-opacity:1;"
         offset="0"
         id="stop3869" />
      <stop
         style="stop-color:#000000;stop-opacity:0;"
         offset="1"
         id="stop3871" />
    </linearGradient>
    <linearGradient
       id="linearGradient3859">
      <stop
         style="stop-color:#780070;stop-opacity:1;"
         offset="0"
         id="stop3861" />
      <stop
         style="stop-color:#000000;stop-opacity:0;"
         offset="1"
         id="stop3863" />
    </linearGradient>
    <linearGradient
       id="linearGradient3847">
      <stop
         style="stop-color:#7fff00;stop-opacity:1;"
         offset="0"
         id="stop3849" />
      <stop
         id="stop3857"
         offset="0.87997842"
         style="stop-color:#6de200;stop-opacity:1;" />
      <stop
         style="stop-color:#53c600;stop-opacity:1;"
         offset="1"
         id="stop3851" />
    </linearGradient>
    <inkscape:perspective
       sodipodi:type="inkscape:persp3d"
       inkscape:vp_x="0 : 526.18109 : 1"
       inkscape:vp_y="0 : 1000 : 0"
       inkscape:vp_z="744.09448 : 526.18109 : 1"
       inkscape:persp3d-origin="372.04724 : 350.78739 : 1"
       id="perspective10" />
    <inkscape:perspective
       id="perspective2464"
       inkscape:persp3d-origin="372.04724 : 350.78739 : 1"
       inkscape:vp_z="744.09448 : 526.18109 : 1"
       inkscape:vp_y="0 : 1000 : 0"
       inkscape:vp_x="0 : 526.18109 : 1"
       sodipodi:type="inkscape:persp3d" />
    <radialGradient
       inkscape:collect="always"
       xlink:href="#linearGradient3847"
       id="radialGradient3855"
       cx="375.60349"
       cy="68.8703"
       fx="375.60349"
       fy="68.8703"
       r="8.8897352"
       gradientTransform="matrix(0.4777088,0.4626703,-0.6494636,0.6705736,241.48863,-153.45864)"
       gradientUnits="userSpaceOnUse" />
    <linearGradient
       inkscape:collect="always"
       xlink:href="#linearGradient3859"
       id="linearGradient3865"
       x1="378.35413"
       y1="44.154514"
       x2="378.20087"
       y2="42.262913"
       gradientUnits="userSpaceOnUse" />
    <linearGradient
       inkscape:collect="always"
       xlink:href="#linearGradient3867"
       id="linearGradient3873"
       x1="382.85297"
       y1="42.799053"
       x2="381.21967"
       y2="42.156796"
       gradientUnits="userSpaceOnUse" />
    <linearGradient
       inkscape:collect="always"
       xlink:href="#linearGradient3867"
       id="linearGradient3903"
       gradientUnits="userSpaceOnUse"
       x1="382.85297"
       y1="42.799053"
       x2="381.21967"
       y2="42.156796" />
    <linearGradient
       inkscape:collect="always"
       xlink:href="#linearGradient3859"
       id="linearGradient3905"
       gradientUnits="userSpaceOnUse"
       x1="378.35413"
       y1="44.154514"
       x2="378.20087"
       y2="42.262913" />
    <radialGradient
       inkscape:collect="always"
       xlink:href="#linearGradient3847"
       id="radialGradient3907"
       gradientUnits="userSpaceOnUse"
       gradientTransform="matrix(0.4777088,0.4626703,-0.6494636,0.6705736,241.48863,-153.45864)"
       cx="375.60349"
       cy="68.8703"
       fx="375.60349"
       fy="68.8703"
       r="8.8897352" />
    <linearGradient
       inkscape:collect="always"
       xlink:href="#linearGradient3867"
       id="linearGradient5431"
       gradientUnits="userSpaceOnUse"
       x1="382.85297"
       y1="42.799053"
       x2="381.21967"
       y2="42.156796" />
    <linearGradient
       inkscape:collect="always"
       xlink:href="#linearGradient3859"
       id="linearGradient5433"
       gradientUnits="userSpaceOnUse"
       x1="378.35413"
       y1="44.154514"
       x2="378.20087"
       y2="42.262913" />
    <radialGradient
       inkscape:collect="always"
       xlink:href="#linearGradient3847"
       id="radialGradient5435"
       gradientUnits="userSpaceOnUse"
       gradientTransform="matrix(0.4777088,0.4626703,-0.6494636,0.6705736,241.48863,-153.45864)"
       cx="375.60349"
       cy="68.8703"
       fx="375.60349"
       fy="68.8703"
       r="8.8897352" />
    <radialGradient
       inkscape:collect="always"
       xlink:href="#linearGradient3847"
       id="radialGradient5441"
       gradientUnits="userSpaceOnUse"
       gradientTransform="matrix(0.4777088,0.4626703,-0.6494636,0.6705736,241.48863,-185.45864)"
       cx="375.60349"
       cy="68.8703"
       fx="375.60349"
       fy="68.8703"
       r="8.8897352" />
    <linearGradient
       inkscape:collect="always"
       xlink:href="#linearGradient3867"
       id="linearGradient5461"
       gradientUnits="userSpaceOnUse"
       x1="382.85297"
       y1="42.799053"
       x2="381.21967"
       y2="42.156796" />
    <linearGradient
       inkscape:collect="always"
       xlink:href="#linearGradient3859"
       id="linearGradient5463"
       gradientUnits="userSpaceOnUse"
       x1="378.35413"
       y1="44.154514"
       x2="378.20087"
       y2="42.262913" />
    <radialGradient
       inkscape:collect="always"
       xlink:href="#linearGradient3847"
       id="radialGradient5465"
       gradientUnits="userSpaceOnUse"
       gradientTransform="matrix(0.4777088,0.4626703,-0.6494636,0.6705736,241.48863,-185.45864)"
       cx="375.60349"
       cy="68.8703"
       fx="375.60349"
       fy="68.8703"
       r="8.8897352" />
    <linearGradient
       inkscape:collect="always"
       xlink:href="#linearGradient3859"
       id="linearGradient2466"
       gradientUnits="userSpaceOnUse"
       x1="379.12967"
       y1="46.896721"
       x2="379.48001"
       y2="43.827301" />
    <linearGradient
       inkscape:collect="always"
       xlink:href="#linearGradient3867"
       id="linearGradient2468"
       gradientUnits="userSpaceOnUse"
       x1="384.5835"
       y1="44.439251"
       x2="381.74786"
       y2="43.004692" />
    <linearGradient
       inkscape:collect="always"
       xlink:href="#linearGradient3867"
       id="linearGradient3252"
       gradientUnits="userSpaceOnUse"
       x1="384.5835"
       y1="44.439251"
       x2="381.74786"
       y2="43.004692" />
    <linearGradient
       inkscape:collect="always"
       xlink:href="#linearGradient3859"
       id="linearGradient3254"
       gradientUnits="userSpaceOnUse"
       x1="379.12967"
       y1="46.896721"
       x2="379.48001"
       y2="43.827301" />
    <linearGradient
       inkscape:collect="always"
       xlink:href="#linearGradient3867"
       id="linearGradient3260"
       gradientUnits="userSpaceOnUse"
       x1="384.5835"
       y1="44.439251"
       x2="381.74786"
       y2="43.004692" />
    <linearGradient
       inkscape:collect="always"
       xlink:href="#linearGradient3859"
       id="linearGradient3262"
       gradientUnits="userSpaceOnUse"
       x1="379.12967"
       y1="46.896721"
       x2="379.48001"
       y2="43.827301" />
    <linearGradient
       inkscape:collect="always"
       xlink:href="#linearGradient3867"
       id="linearGradient3270"
       gradientUnits="userSpaceOnUse"
       x1="384.5835"
       y1="44.439251"
       x2="381.74786"
       y2="43.004692" />
    <linearGradient
       inkscape:collect="always"
       xlink:href="#linearGradient3859"
       id="linearGradient3272"
       gradientUnits="userSpaceOnUse"
       x1="379.12967"
       y1="46.896721"
       x2="379.48001"
       y2="43.827301" />
    <linearGradient
       inkscape:collect="always"
       xlink:href="#linearGradient3859"
       id="linearGradient3278"
       gradientUnits="userSpaceOnUse"
       x1="379.12967"
       y1="46.896721"
       x2="379.48001"
       y2="43.827301" />
    <linearGradient
       inkscape:collect="always"
       xlink:href="#linearGradient3859"
       id="linearGradient3288"
       gradientUnits="userSpaceOnUse"
       x1="379.48001"
       y1="44.582291"
       x2="379.48001"
       y2="42.865181" />
    <radialGradient
       inkscape:collect="always"
       xlink:href="#linearGradient3655"
       id="radialGradient4211"
       gradientUnits="userSpaceOnUse"
       gradientTransform="matrix(2.006662,-9.4223918e-2,4.8239425e-2,1.0273389,-386.74784,386.99383)"
       cx="381.51486"
       cy="48.116875"
       fx="381.51486"
       fy="48.116875"
       r="2.1704648" />
    <radialGradient
       inkscape:collect="always"
       xlink:href="#linearGradient3655"
       id="radialGradient4215"
       gradientUnits="userSpaceOnUse"
       gradientTransform="matrix(2.006662,-9.4223918e-2,4.8239425e-2,1.0273389,-386.74784,419.97746)"
       cx="381.51486"
       cy="48.116875"
       fx="381.51486"
       fy="48.116875"
       r="2.1704648" />
    <radialGradient
       inkscape:collect="always"
       xlink:href="#linearGradient3655"
       id="radialGradient4219"
       gradientUnits="userSpaceOnUse"
       gradientTransform="matrix(2.006662,-9.4223918e-2,4.8239425e-2,1.0273389,-386.74784,450.96109)"
       cx="381.51486"
       cy="48.116875"
       fx="381.51486"
       fy="48.116875"
       r="2.1704648" />
    <radialGradient
       inkscape:collect="always"
       xlink:href="#linearGradient3685"
       id="radialGradient3691"
       cx="386.8699"
       cy="51.705593"
       fx="386.8699"
       fy="51.705593"
       r="2.6074896"
       gradientTransform="matrix(0.1567481,-1.3923124e-2,2.6548635e-2,0.2988875,322.37861,38.727696)"
       gradientUnits="userSpaceOnUse"
       spreadMethod="reflect" />
    <linearGradient
       inkscape:collect="always"
       xlink:href="#linearGradient3701"
       id="linearGradient3725"
       x1="386.80844"
       y1="48.222446"
       x2="386.80844"
       y2="49.496162"
       gradientUnits="userSpaceOnUse"
       spreadMethod="repeat"
       gradientTransform="matrix(1.0983213,0,0,1.1195965,-37.597923,-5.8864792)" />
    <linearGradient
       inkscape:collect="always"
       xlink:href="#linearGradient3843"
       id="linearGradient2467"
       gradientUnits="userSpaceOnUse"
       x1="356.45798"
       y1="37.632187"
       x2="362.10944"
       y2="35.307468"
       gradientTransform="matrix(1.0179923,-0.5060533,0.5627962,0.9153551,-4.0559364,187.00248)" />
    <linearGradient
       inkscape:collect="always"
       xlink:href="#linearGradient3862"
       id="linearGradient2469"
       gradientUnits="userSpaceOnUse"
       x1="355.87949"
       y1="36.435471"
       x2="361.45105"
       y2="33.979053"
       gradientTransform="matrix(1.0179923,-0.5060533,0.5627962,0.9153551,-4.0559364,187.00248)" />
    <linearGradient
       inkscape:collect="always"
       xlink:href="#linearGradient3862"
       id="linearGradient3245"
       gradientUnits="userSpaceOnUse"
       gradientTransform="matrix(1.0179923,-0.5060533,0.5627962,0.9153551,-4.0559364,187.00248)"
       x1="354.64752"
       y1="36.275455"
       x2="357.53629"
       y2="35.262508" />
    <linearGradient
       inkscape:collect="always"
       xlink:href="#linearGradient3249"
       id="linearGradient3247"
       gradientUnits="userSpaceOnUse"
       gradientTransform="matrix(1.0179923,-0.5060533,0.5627962,0.9153551,-4.0559364,187.00248)"
       x1="354.2168"
       y1="38.305721"
       x2="356.77625"
       y2="37.512794" />
  </defs>
  <sodipodi:namedview
     id="base"
     pagecolor="#ffffff"
     bordercolor="#666666"
     borderopacity="1.0"
     gridtolerance="10000"
     guidetolerance="10"
     objecttolerance="10"
     inkscape:pageopacity="0.0"
     inkscape:pageshadow="2"
     inkscape:zoom="16"
     inkscape:cx="377.56905"
     inkscape:cy="1013.9911"
     inkscape:document-units="px"
     inkscape:current-layer="layer2"
     showgrid="false"
     inkscape:window-width="1256"
     inkscape:window-height="775"
     inkscape:window-x="24"
     inkscape:window-y="0" />
  <metadata
     id="metadata7">
    <rdf:RDF>
      <cc:Work
         rdf:about="">
        <dc:format>image/svg+xml</dc:format>
        <dc:type
           rdf:resource="http://purl.org/dc/dcmitype/StillImage" />
      </cc:Work>
    </rdf:RDF>
  </metadata>
  <g
     inkscape:label="Layer 1"
     inkscape:groupmode="layer"
     id="layer1"
     style="display:inline">
    <image
       y="20.362183"
       x="359"
       id="image2466"
       height="1024"
       width="32"
       sodipodi:absref="/home/chujoii/tmp/hedgewars/templateol3.png"
       xlink:href="templateol3.png" />
  </g>
  <g
     inkscape:groupmode="layer"
     id="layer2"
     inkscape:label="hat"
     style="display:inline">
    <path
       style="fill:#949494;fill-opacity:1;fill-rule:nonzero;stroke:#414141;stroke-width:0.69999999000000002;stroke-linecap:butt;stroke-linejoin:round;stroke-miterlimit:10.43299960999999954;stroke-dashoffset:0;stroke-opacity:1;opacity:1"
       d="M 377.8125,31.6875 C 374.76969,31.6875 372.0267,32.868396 370.03125,34.78125 C 368.03579,36.694104 366.78125,39.364412 366.78125,42.28125 C 368.7831,46.511728 372.83325,41.825511 379.09375,47.78125 C 385.35424,53.736988 388.40535,47.337894 388.84375,42.28125 C 388.84375,39.364412 387.62045,36.694104 385.625,34.78125 C 383.62954,32.868396 380.8553,31.6875 377.8125,31.6875 z M 381.03125,33.78125 C 382.51918,33.723297 384.01411,34.386018 385.5625,36.25 C 386.80121,37.741184 387.17197,38.663046 386.92658,39.364461 C 385.89303,41.082023 383.95724,38.861327 382.25228,38.755166 C 381.53594,40.031391 381.72333,42.800875 381.24699,44.186659 C 380.05164,45.0197 378.58647,45.097808 376.28125,42.6875 C 371.67081,37.866879 375.89197,35.781304 378.34375,34.5625 C 379.26317,34.105446 380.13849,33.816022 381.03125,33.78125 z"
       id="path2950"
       sodipodi:nodetypes="cscscsccscccssc" />
    <path
       style="opacity:1;fill:#949494;fill-opacity:1;fill-rule:nonzero;stroke:#414141;stroke-width:0;stroke-linecap:butt;stroke-linejoin:round;stroke-miterlimit:10.43299961;stroke-dasharray:none;stroke-dashoffset:0;stroke-opacity:1"
       id="path3821"
       d="M 379.9708,10.315555 C 379.76576,10.279351 379.5615,10.243895 379.35305,10.22936 C 378.9218,10.194281 378.49213,10.264842 378.07372,10.363151 C 377.45009,10.504818 376.85798,10.751395 376.27807,11.015902 C 375.58016,11.337335 374.96238,11.775084 374.36998,12.259002 C 373.85325,12.712216 373.38133,13.221576 373.03695,13.82014 C 372.97412,13.929348 372.9213,14.044021 372.86347,14.155962 C 372.63631,14.693654 372.52009,15.270051 372.54706,15.85458 C 372.55241,15.970625 372.56819,16.085953 372.57876,16.20164 C 372.63723,16.681689 372.76111,17.154858 372.93159,17.607361 C 373.00865,17.811893 373.139,18.089405 373.2294,18.288009 C 373.51203,18.847055 373.86538,19.371734 374.28603,19.83661 C 374.37202,19.931642 374.46334,20.02171 374.552,20.114259 C 375.13778,20.687525 375.8179,21.148003 376.52086,21.563607 C 377.0115,21.839577 377.52048,22.084915 378.04695,22.285109 C 378.37507,22.409881 378.49983,22.439839 378.83562,22.53908 C 379.61549,22.771896 380.42359,22.881451 381.23062,22.966741 C 381.99748,23.042908 382.76695,23.036274 383.53504,22.990664 C 384.1689,22.928654 384.79908,22.827317 385.40751,22.634132 C 385.53199,22.594608 385.65346,22.546162 385.77643,22.502176 C 386.38367,22.256018 386.96878,21.948286 387.50448,21.569507 C 387.60443,21.498837 387.69937,21.421343 387.79682,21.347262 C 388.15308,21.066564 388.47474,20.734355 388.71523,20.347433 C 388.83725,20.151121 388.91812,19.956035 389.01377,19.746513 C 389.2835,19.03433 389.35405,18.27259 389.42742,17.520902 C 389.48865,16.758543 389.53419,15.99512 389.52348,15.230139 C 389.50851,14.710301 389.46305,14.183724 389.31447,13.682727 C 389.28696,13.589972 389.25189,13.499629 389.2206,13.408079 C 389.03836,12.870356 388.7158,12.403655 388.38951,11.945767 C 388.0777,11.525047 387.71842,11.146577 387.3344,10.792106 C 386.91834,10.439511 386.46708,10.270416 385.9462,10.137836 C 385.35496,10.007168 384.74829,9.9721742 384.14483,9.9493373 C 383.53545,9.9102749 382.92525,9.8976646 382.31488,9.9104582 C 381.53072,9.9318712 380.76113,10.087108 379.9976,10.254072 C 379.55015,10.353761 379.11419,10.514792 378.6556,10.559688 C 378.56293,10.56876 378.46958,10.568353 378.37657,10.572685 C 378.36333,10.573302 378.35974,10.561879 378.37095,10.5548 L 378.37095,10.5548 C 378.57673,10.42486 378.6522,10.366346 378.8814,10.268252 C 379.21724,10.124517 379.57649,10.042773 379.92864,9.9517832 C 380.7101,9.7662853 381.50306,9.6273767 382.3076,9.6004898 C 382.92555,9.5844581 383.5422,9.611681 384.15962,9.6359629 C 384.78379,9.6711941 385.41236,9.6941914 386.0231,9.8412586 C 386.59711,9.9926384 387.08156,10.166331 387.53212,10.570205 C 387.94403,10.925171 388.31033,11.328544 388.64047,11.76059 C 389.00261,12.235476 389.31578,12.746956 389.52581,13.308451 C 389.60654,13.566997 389.63627,13.644571 389.6968,13.909616 C 389.79538,14.34127 389.83,14.785155 389.85002,15.226487 C 389.85657,16.00278 389.82284,16.778505 389.74703,17.551392 C 389.67372,18.337888 389.59627,19.135456 389.30867,19.878045 C 389.25947,19.990745 389.21683,20.10654 389.16109,20.216147 C 388.88189,20.765094 388.46536,21.222569 387.98884,21.606856 C 387.73405,21.790421 387.61551,21.882638 387.34674,22.048463 C 386.88046,22.33615 386.38295,22.574116 385.8739,22.775172 C 385.61524,22.867357 385.37095,22.960207 385.10552,23.031908 C 384.60036,23.16837 384.07591,23.244822 383.55543,23.287175 C 382.77071,23.34832 381.98258,23.350501 381.19915,23.264127 C 380.37217,23.176532 379.54852,23.052412 378.74697,22.824682 C 377.92673,22.558103 377.12208,22.245206 376.37973,21.79986 C 376.17528,21.676487 375.8438,21.480029 375.64548,21.346188 C 375.18646,21.036412 374.75257,20.688091 374.36201,20.295186 C 374.27048,20.198527 374.17617,20.104427 374.08742,20.005208 C 373.65355,19.520149 373.29101,18.976688 372.99997,18.395061 C 372.94458,18.27911 372.88492,18.165104 372.83381,18.047207 C 372.5815,17.465269 372.40824,16.851285 372.32461,16.222539 C 372.30223,15.918531 372.28436,15.79427 372.29658,15.48944 C 372.31661,14.989861 372.43383,14.49858 372.64412,14.044951 C 372.80435,13.7221 372.83441,13.633458 373.04083,13.332755 C 373.36732,12.857144 373.77612,12.441165 374.21061,12.064639 C 374.32011,11.974532 374.42713,11.881326 374.5391,11.794317 C 375.04557,11.400773 375.59768,11.065668 376.17881,10.795008 C 376.77754,10.52988 377.39267,10.302877 378.03675,10.174095 C 378.47705,10.104561 378.92024,10.043703 379.36719,10.083272 C 379.57903,10.109266 379.79515,10.137929 379.99662,10.210436 C 380.06864,10.236354 380.04617,10.328864 379.9708,10.315555 z" />
    <path
       style="opacity:1;fill:#949494;fill-opacity:1;fill-rule:nonzero;stroke:#414141;stroke-width:0;stroke-linecap:butt;stroke-linejoin:round;stroke-miterlimit:10.43299961;stroke-dasharray:none;stroke-dashoffset:0;stroke-opacity:1"
       id="path3823"
       d="M 389.73159,13.835543 C 389.82948,13.931407 389.94223,14.010523 390.04407,14.101892 C 390.16172,14.194011 390.22988,14.30901 390.28359,14.446465 C 390.3647,14.679423 390.41119,14.922172 390.49869,15.152928 C 390.61654,15.493399 390.78204,15.815511 390.95763,16.129342 C 391.12878,16.443385 391.27569,16.769913 391.37143,17.114772 C 391.45706,17.442736 391.49517,17.781368 391.54122,18.116811 C 391.6036,18.444466 391.66581,18.772189 391.73533,19.098535 C 391.81635,19.456872 391.85657,19.821084 391.89645,20.185666 C 391.91797,20.559026 391.92982,20.933148 391.92724,21.307091 C 391.91859,21.603545 391.93071,21.900613 391.91537,22.196811 C 391.92101,22.451526 391.92122,22.705987 391.92838,22.960539 C 391.94226,23.168382 391.92681,23.376008 391.93585,23.58377 C 391.92253,23.742746 391.92941,23.902795 391.91198,24.061258 C 391.9014,24.195381 391.8807,24.328756 391.84725,24.45924 C 391.8287,24.529061 391.81334,24.603189 391.78904,24.671172 C 391.78933,24.707108 391.77733,24.736547 391.7785,24.77388 C 391.77343,24.78548 391.75959,24.836093 391.77323,24.822263 C 391.76643,24.832289 391.77053,24.868938 391.77051,24.889741 C 391.7765,24.92505 391.76979,24.961304 391.77517,24.995942 C 391.78021,25.035115 391.77751,25.073009 391.77638,25.1136 C 391.76395,25.170015 391.77038,25.228529 391.75812,25.284382 C 391.74517,25.317565 391.75444,25.354122 391.74584,25.384948 C 391.73414,25.411617 391.73434,25.440181 391.71833,25.46634 C 391.71569,25.482175 391.70245,25.538078 391.68941,25.542269 C 391.67227,25.656085 391.3572,25.572268 391.29557,25.442085 C 391.33274,25.384995 391.13994,25.421175 391.49261,25.428718 C 391.50586,25.429001 391.49404,25.415784 391.50724,25.416997 L 391.50724,25.416997 C 391.78216,25.442253 391.68761,25.406227 391.7157,25.441348 C 391.64935,25.568352 391.32079,25.302434 391.32715,25.377149 C 391.32497,25.375591 391.33049,25.354328 391.33976,25.349192 C 391.34076,25.33206 391.35644,25.289127 391.35413,25.295557 C 391.37141,25.282854 391.36216,25.250324 391.37131,25.228818 C 391.3693,25.183259 391.38741,25.135009 391.37908,25.088162 C 391.38301,25.053245 391.38438,25.02843 391.38806,24.996181 C 391.39344,24.961377 391.3866,24.924927 391.39257,24.889423 C 391.39261,24.851217 391.39505,24.817434 391.39228,24.778654 C 391.40296,24.759861 391.408,24.736931 391.40636,24.719454 C 391.42269,24.673059 391.41575,24.625315 391.43571,24.579247 C 391.45006,24.510312 391.48158,24.443828 391.49945,24.375433 C 391.52491,24.2613 391.54947,24.147633 391.56102,24.03114 C 391.56991,23.880107 391.58893,23.729107 391.57999,23.577228 C 391.59675,23.374516 391.5806,23.170793 391.58721,22.967601 C 391.58378,22.70958 391.57222,22.451554 391.58332,22.193385 C 391.57438,21.89784 391.60356,21.602268 391.59884,21.306511 C 391.59757,20.94202 391.60266,20.576982 391.56922,20.213435 C 391.54818,19.859317 391.49541,19.50869 391.426,19.160937 C 391.36273,18.828617 391.28116,18.499322 391.23479,18.164026 C 391.17978,17.841561 391.14985,17.515162 391.08141,17.194855 C 391.0663,17.139807 391.01254,16.9404 390.99403,16.887313 C 390.91825,16.669954 390.80594,16.467028 390.7022,16.262473 C 390.53882,15.925241 390.35825,15.595405 390.23227,15.241316 C 390.16452,15.00623 390.08967,14.773735 390.04187,14.53332 C 390.00895,14.429623 389.96323,14.329229 389.89376,14.244668 C 389.8107,14.141037 389.73073,14.03461 389.62884,13.947926 C 389.54683,13.878156 389.65466,13.760207 389.73159,13.835543 z" />
    <path
       style="opacity:1;fill:#949494;fill-opacity:1;fill-rule:nonzero;stroke:#414141;stroke-width:0;stroke-linecap:butt;stroke-linejoin:round;stroke-miterlimit:10.43299961;stroke-dasharray:none;stroke-dashoffset:0;stroke-opacity:1"
       id="path3825"
       d="M 391.39879,24.668128 C 391.08037,24.668771 390.7621,24.659472 390.44456,24.636061 C 389.90336,24.597452 389.36454,24.533606 388.8276,24.456546 C 388.32722,24.385674 387.82666,24.321657 387.32285,24.279674 C 386.97887,24.243148 386.63318,24.23699 386.28788,24.250226 C 386.23276,24.256378 386.15667,24.242463 386.10253,24.264739 C 386.09901,24.266189 386.09789,24.27759 386.1014,24.276115 C 386.19272,24.237771 386.16931,24.227781 386.20972,24.123486 C 386.21115,24.116309 386.20853,24.097105 386.21401,24.101954 C 386.22834,24.114624 386.23182,24.135852 386.24201,24.152037 C 386.25949,24.179801 386.27904,24.206216 386.29696,24.233696 C 386.38647,24.37092 386.46227,24.515573 386.54196,24.658635 C 386.76886,25.099736 386.95884,25.556492 387.12829,26.022271 C 387.27845,26.481301 387.39016,26.951876 387.45463,27.430473 C 387.49667,27.725968 387.52,28.023534 387.53341,28.321516 C 387.56017,28.543769 387.53349,28.288364 387.54274,28.484 C 387.54281,28.485462 387.56643,28.618712 387.55404,28.532212 C 387.51117,28.504954 387.6286,28.524408 387.63072,28.524405 C 387.77505,28.524185 387.60985,28.511436 387.78177,28.529554 C 388.04399,28.536967 388.30524,28.560122 388.56737,28.576264 C 388.99996,28.601767 389.43267,28.623627 389.8656,28.642673 C 390.35726,28.664765 390.84932,28.671416 391.34114,28.650519 C 391.71229,28.644754 392.08242,28.611613 392.4533,28.597803 C 392.6373,28.593399 392.8252,28.583425 393.00774,28.612981 C 393.07402,28.605155 393.13628,28.65056 393.19936,28.651255 C 393.29706,28.655467 393.18417,28.648816 392.98082,28.74518 C 392.97275,28.749002 392.97318,28.774442 392.96693,28.768074 C 392.95979,28.760804 392.97345,28.748529 392.97412,28.738361 C 392.97778,28.682981 392.97581,28.627341 392.97893,28.571927 C 392.99216,28.121972 392.96241,27.671912 392.95124,27.222027 C 392.92573,26.666915 392.8703,26.114507 392.75455,25.570761 C 392.69028,25.35902 392.64998,25.124169 392.52027,24.939138 C 392.50349,24.902615 392.4819,24.890726 392.4493,24.881513 C 392.25794,24.801166 392.05598,24.743455 391.86058,24.671791 C 391.53893,24.531665 391.69884,24.622751 391.38806,24.38626 C 391.37751,24.378231 391.37929,24.370583 391.39229,24.367992 L 391.39229,24.367992 C 391.77627,24.291492 391.59128,24.303582 391.94626,24.318783 C 392.20338,24.352764 392.4677,24.39641 392.69139,24.535903 C 392.7608,24.596928 392.81723,24.662867 392.86456,24.742922 C 392.88882,24.79304 392.91797,24.840721 392.94155,24.891159 C 393.03014,25.080623 393.07741,25.290122 393.12786,25.491599 C 393.24728,26.05675 393.30677,26.628382 393.32333,27.205988 C 393.35147,27.665517 393.36166,28.126195 393.35843,28.586402 C 393.35777,28.617642 393.35448,28.877953 393.3265,28.897953 C 393.25394,28.949821 393.16563,28.97504 393.0852,29.013583 C 393.08532,29.012297 393.08544,29.011011 393.08555,29.009725 C 393.06738,28.981548 392.99253,28.998384 392.96504,28.979263 C 392.79991,28.969377 392.63533,28.959178 392.46947,28.969884 C 392.09767,28.988386 391.72557,29.001121 391.35402,29.024564 C 390.85226,29.037895 390.35055,29.04709 389.84906,29.01841 C 389.41391,28.999261 388.97886,28.979895 388.5439,28.957146 C 388.28439,28.941147 388.02537,28.921999 387.76669,28.899844 C 387.59802,28.903753 387.42814,28.88713 387.28505,28.789797 C 387.1867,28.64428 387.17124,28.517417 387.17085,28.344164 C 387.14797,28.057622 387.1376,27.770017 387.0937,27.485414 C 387.01647,27.032578 386.94461,26.576088 386.78732,26.142148 C 386.63422,25.690378 386.45134,25.247775 386.21964,24.830104 C 386.14961,24.691778 386.07496,24.557506 385.99779,24.423096 C 385.96832,24.371767 385.92905,24.326215 385.90216,24.27349 C 385.88653,24.242862 385.87759,24.209267 385.8653,24.177155 C 385.87769,24.123085 385.87573,24.063543 385.90247,24.014945 C 385.96091,23.908768 386.17632,23.932084 386.27533,23.912886 C 386.63671,23.899807 386.99567,23.94689 387.35505,23.978677 C 387.85875,24.044356 388.36132,24.117822 388.86462,24.185703 C 389.39815,24.254983 389.92915,24.341121 390.46354,24.403836 C 390.77345,24.431672 391.0836,24.468103 391.39531,24.462678 C 391.54058,24.46015 391.54408,24.667835 391.39879,24.668128 z" />
    <path
       style="opacity:1;fill:#949494;fill-opacity:1;fill-rule:nonzero;stroke:#414141;stroke-width:0;stroke-linecap:butt;stroke-linejoin:round;stroke-miterlimit:10.43299961;stroke-dasharray:none;stroke-dashoffset:0;stroke-opacity:1"
       id="path3827"
       d="M 389.66676,24.407618 C 389.72452,24.270984 389.75328,24.124685 389.76202,23.977011 C 389.77695,23.723314 389.71525,23.473495 389.66999,23.225638 C 389.60326,22.929323 389.5088,22.641564 389.40463,22.356668 C 389.31258,22.119148 389.18571,21.901498 389.00647,21.72009 C 388.84366,21.547301 388.67461,21.381384 388.52193,21.199226 C 388.39729,21.047195 388.26379,20.902274 388.14762,20.743177 C 388.04117,20.618052 387.9234,20.504755 387.79215,20.406218 C 387.64205,20.292539 387.49537,20.173527 387.34002,20.067192 C 387.19662,19.946448 387.04338,19.839028 386.88783,19.734983 C 386.75896,19.648554 386.60982,19.602564 386.46785,19.542509 C 386.32869,19.511657 386.19241,19.472379 386.05244,19.444853 C 385.93219,19.430312 385.81535,19.393091 385.69569,19.377022 C 385.62304,19.350311 385.54664,19.341914 385.47031,19.338501 C 385.40826,19.326202 385.34399,19.338872 385.28053,19.337249 C 385.23823,19.351625 385.19286,19.34192 385.15403,19.356013 C 385.15293,19.334917 385.13678,19.360725 385.14107,19.359452 C 385.21396,19.33781 385.14864,19.256545 385.13057,19.221507 C 385.09014,19.143104 385.10214,19.194945 385.06784,19.113668 L 385.06784,19.113668 C 385.0423,19.053134 385.0013,18.984075 385.09152,18.960733 C 385.12091,18.953129 385.07514,18.989493 385.10702,18.960682 C 385.15394,18.965086 385.20225,18.942966 385.25273,18.95114 C 385.33549,18.93946 385.4179,18.949043 385.50037,18.947041 C 385.59529,18.95649 385.68794,18.977628 385.78187,18.992106 C 385.89684,19.029169 386.02003,19.038847 386.13577,19.074338 C 386.28472,19.111824 386.43559,19.141577 386.58039,19.193266 C 386.7636,19.238767 386.93065,19.327898 387.09093,19.425 C 387.25839,19.532765 387.40909,19.662169 387.56329,19.787657 C 387.70213,19.916868 387.85581,20.029582 388.00158,20.150882 C 388.1406,20.274358 388.28641,20.392502 388.39152,20.548796 C 388.51934,20.696323 388.62957,20.857986 388.75274,21.009075 C 388.90036,21.191603 389.05665,21.366235 389.21993,21.534989 C 389.3945,21.761091 389.55982,21.991769 389.64589,22.268562 C 389.75424,22.565627 389.84124,22.87121 389.88993,23.184138 C 389.94187,23.451176 389.96885,23.723227 389.96114,23.995451 C 389.94096,24.16169 389.90947,24.325388 389.84506,24.480557 C 389.79284,24.606363 389.61373,24.533085 389.66676,24.407618 z" />
    <path
       style="opacity:1;fill:#949494;fill-opacity:1;fill-rule:nonzero;stroke:#414141;stroke-width:0;stroke-linecap:butt;stroke-linejoin:round;stroke-miterlimit:10.43299961;stroke-dasharray:none;stroke-dashoffset:0;stroke-opacity:1"
       id="path3829"
       d="M 380.43882,13.265505 C 380.34582,13.217158 380.26269,13.213736 380.17167,13.263241 C 379.98106,13.397508 379.88885,13.617185 379.79409,13.821739 C 379.62763,14.24715 379.54902,14.698916 379.50023,15.151049 C 379.45898,15.582022 379.46588,15.996544 379.61671,16.405496 C 379.76547,16.707838 380.02385,16.836688 380.33298,16.928611 C 380.72694,17.030157 381.1304,16.972537 381.52304,16.897343 C 381.88998,16.814673 382.24396,16.68825 382.57821,16.516448 C 382.82686,16.387068 383.04119,16.210692 383.2167,15.993208 C 383.41137,15.756439 383.49081,15.483442 383.54725,15.188484 C 383.61067,14.853165 383.55851,14.520908 383.49236,14.191495 C 383.42918,13.949389 383.32965,13.723201 383.1969,13.511812 C 383.09653,13.365552 382.97753,13.233755 382.83745,13.124914 C 382.67688,12.987142 382.49328,12.881487 382.31634,12.767124 C 382.12405,12.648192 381.91925,12.553289 381.71447,12.458461 C 381.5349,12.380523 381.3515,12.321188 381.15615,12.303614 C 381.02666,12.291781 380.90018,12.277788 380.77003,12.275237 C 380.75677,12.274977 380.75337,12.267023 380.76296,12.25787 L 380.76296,12.25787 C 380.8756,12.150397 380.97977,12.040198 381.13645,11.999702 C 381.23974,11.981851 381.30625,11.964006 381.41155,11.97038 C 381.56966,11.979952 381.72498,12.041487 381.8698,12.09988 C 382.09615,12.191895 382.31258,12.306217 382.52163,12.432459 C 382.72135,12.549007 382.90916,12.68485 383.09325,12.824654 C 383.25267,12.970947 383.41095,13.120891 383.52378,13.307889 C 383.67826,13.556883 383.80693,13.823501 383.86577,14.112822 C 383.94892,14.491933 383.96702,14.880922 383.89322,15.263861 C 383.8111,15.604713 383.6902,15.931623 383.46151,16.203749 C 383.24544,16.441886 383.00782,16.653443 382.71331,16.791438 C 382.35028,16.962384 381.97293,17.101698 381.57812,17.180065 C 381.13644,17.267473 380.68921,17.31284 380.24709,17.195849 C 379.83531,17.055114 379.56323,16.90064 379.37411,16.489842 C 379.3537,16.428085 379.32858,16.367689 379.31288,16.304569 C 379.21695,15.918805 379.28431,15.515565 379.32565,15.127767 C 379.39913,14.6639 379.47252,14.195789 379.66031,13.761375 C 379.76467,13.52418 379.88656,13.274669 380.12181,13.142905 C 380.25746,13.097122 380.35489,13.113336 380.4829,13.172702 C 380.5488,13.203267 380.50327,13.299016 380.43882,13.265505 z" />
    <path
       style="opacity:1;fill:#949494;fill-opacity:1;fill-rule:nonzero;stroke:#414141;stroke-width:0;stroke-linecap:butt;stroke-linejoin:round;stroke-miterlimit:10.43299961;stroke-dasharray:none;stroke-dashoffset:0;stroke-opacity:1"
       id="path3831"
       d="M 387.5682,12.254254 C 387.47419,12.443098 387.4148,12.646079 387.36304,12.849942 C 387.29749,13.126259 387.29569,13.403043 387.36299,13.678089 C 387.45139,14.014417 387.66426,14.281753 387.90693,14.521367 C 388.15824,14.775485 388.46329,14.925667 388.79566,15.04209 C 389.08146,15.125564 389.37605,15.140441 389.6716,15.126484 C 389.90656,15.103014 390.13015,15.03227 390.32311,14.895288 C 390.49801,14.765577 390.57013,14.569313 390.6214,14.365488 C 390.69112,14.08112 390.69729,13.787556 390.68463,13.49663 C 390.6753,13.259014 390.59752,13.03833 390.50162,12.823787 C 390.40777,12.657658 390.30449,12.49807 390.19136,12.344485 C 390.10591,12.246036 390.0404,12.122627 389.93488,12.043558 C 389.88798,11.985809 389.8184,11.96014 389.75709,11.922243 C 389.65011,11.859136 389.5392,11.801889 389.43601,11.732107 C 389.35393,11.688942 389.27065,11.651042 389.17744,11.643792 C 389.0179,11.639036 388.86134,11.678491 388.70776,11.718331 C 388.52939,11.755284 388.36249,11.830422 388.18767,11.878518 C 388.05357,11.922205 387.9235,11.895242 387.78804,11.878014 C 387.77489,11.876341 387.77358,11.875647 387.77702,11.862844 L 387.77702,11.862844 C 387.82133,11.698018 387.86047,11.58871 388.0076,11.488804 C 388.18602,11.373828 388.38734,11.304744 388.59221,11.251751 C 388.80359,11.201512 389.02005,11.152718 389.23863,11.172578 C 389.39389,11.196529 389.54498,11.236827 389.67852,11.323484 C 389.78589,11.379528 389.88316,11.45278 389.99246,11.505245 C 390.09725,11.559987 390.19152,11.632953 390.28099,11.710001 C 390.37468,11.832581 390.48513,11.94223 390.56949,12.07214 C 390.69672,12.252535 390.83244,12.430631 390.92117,12.633971 C 391.04345,12.901726 391.12017,13.185522 391.13384,13.48091 C 391.1432,13.819668 391.12095,14.15914 391.03832,14.488942 C 390.93355,14.805019 390.82768,15.055923 390.53762,15.24582 C 390.45186,15.292863 390.37733,15.33758 390.28539,15.372461 C 390.09482,15.444758 389.88723,15.471902 389.68527,15.483977 C 389.34656,15.49431 389.00783,15.464218 388.68555,15.353428 C 388.30891,15.219128 387.97061,15.017696 387.68713,14.732167 C 387.42086,14.440686 387.18002,14.126149 387.08085,13.736063 C 387.02447,13.411041 387.01982,13.107298 387.09769,12.784241 C 387.15208,12.559401 387.22378,12.3392 387.33113,12.133564 C 387.41818,11.966813 387.65203,12.085862 387.5682,12.254254 z" />
    <path
       style="opacity:1;fill:url(#linearGradient3247);fill-opacity:1;fill-rule:nonzero;stroke:url(#linearGradient3245);stroke-width:0.89999998000000003;stroke-linecap:butt;stroke-linejoin:round;stroke-miterlimit:10.43299960999999954;stroke-dashoffset:0;stroke-opacity:1"
       d="M 385.55545,36.259427 C 388.03287,39.241796 387.05081,39.949539 384.59902,41.168348 C 382.14723,42.387152 380.89835,47.50432 376.28792,42.683701 C 371.67749,37.863082 375.88205,35.79152 378.33383,34.572716 C 380.78562,33.353906 383.07803,33.277058 385.55545,36.259427 z"
       id="path3833"
       sodipodi:nodetypes="cszsz" />
    <rect
       style="opacity:1;fill:url(#linearGradient3725);fill-opacity:1;fill-rule:nonzero;stroke:none;stroke-width:0.89999998;stroke-linecap:butt;stroke-linejoin:round;stroke-miterlimit:10.43299961;stroke-dasharray:none;stroke-dashoffset:0;stroke-opacity:1"
       id="rect3699"
       width="4.9647698"
       height="4.2113819"
       x="384.75967"
       y="48.103207" />
    <path
       style="opacity:1;fill:#000000;fill-opacity:1;fill-rule:nonzero;stroke:none;stroke-width:0.89999998;stroke-linecap:butt;stroke-linejoin:round;stroke-miterlimit:10.43299961;stroke-dasharray:none;stroke-dashoffset:0;stroke-opacity:1"
       id="path3275"
       d="M 385.96156,47.914843 C 386.04993,47.914339 386.13805,47.914733 386.2264,47.915061 C 386.29197,47.910166 386.35846,47.914346 386.42362,47.905923 C 386.47391,47.909164 386.52338,47.901111 386.57386,47.903098 C 386.61371,47.896023 386.65501,47.902147 386.69478,47.897559 C 386.73611,47.900281 386.77869,47.887975 386.81894,47.898348 C 386.86548,47.899845 386.90849,47.902098 386.95499,47.900132 C 387.00578,47.899095 387.05693,47.900273 387.10823,47.896691 C 387.15895,47.901591 387.20908,47.892401 387.25947,47.891222 C 387.31548,47.881499 387.37259,47.884198 387.42912,47.885081 C 387.47414,47.887965 387.51825,47.889163 387.56323,47.887894 C 387.608,47.890671 387.6523,47.886229 387.69785,47.889354 C 387.76044,47.885269 387.82348,47.888408 387.88629,47.888397 C 387.92299,47.894365 387.96274,47.882839 387.99781,47.888072 C 388.04048,47.881322 388.08171,47.882384 388.12483,47.880307 C 388.15291,47.872453 388.18397,47.879927 388.21034,47.871098 C 388.23587,47.865953 388.26153,47.857401 388.28918,47.857759 C 388.30277,47.848194 388.3218,47.851321 388.3325,47.850069 C 388.4086,47.811968 388.49188,47.926288 388.55796,47.971536 C 388.54585,48.058353 388.44989,48.071962 388.38041,48.091032 C 388.36762,48.094541 388.3746,48.089498 388.36174,48.092724 L 388.36174,48.092724 C 388.29436,48.109624 388.20902,48.120188 388.177,48.192305 C 388.24771,48.238017 388.32839,48.339443 388.38278,48.302273 C 388.37488,48.303264 388.3657,48.307863 388.35894,48.303656 C 388.33595,48.314562 388.31059,48.311083 388.28633,48.319698 C 388.24094,48.328914 388.19313,48.332753 388.14635,48.331115 C 388.10431,48.333099 388.0637,48.340553 388.02151,48.336933 C 387.97751,48.345134 387.93109,48.334998 387.88637,48.339718 C 387.82351,48.339729 387.76041,48.342909 387.69776,48.338841 C 387.64962,48.342086 387.60299,48.337389 387.55541,48.339147 C 387.50544,48.336264 387.45624,48.334829 387.40619,48.332145 C 387.37104,48.328567 387.33708,48.330168 387.30186,48.333176 C 387.23787,48.343302 387.17368,48.341153 387.10942,48.342506 C 387.05793,48.339131 387.00673,48.341007 386.95574,48.340444 C 386.90393,48.338673 386.85308,48.340573 386.80204,48.332829 C 386.76804,48.340439 386.73071,48.326455 386.69483,48.330534 C 386.65513,48.325956 386.61392,48.332091 386.57413,48.325064 C 386.52337,48.327132 386.47362,48.31912 386.42303,48.322385 C 386.35461,48.313584 386.28471,48.317386 386.21602,48.309372 C 386.12267,48.304955 386.02952,48.297707 385.9369,48.284619 C 385.67743,48.247948 385.69951,47.916334 385.96156,47.914843 z" />
  </g>
</svg>
